<svg version="1.1" xmlns="http://www.w3.org/2000/svg" viewBox="-40.054426546616746 -575.703401552201 81.02584795177495 1141.988447602038" fill="none" stroke="black" stroke-width="0.6%" vector-effect="non-scaling-stroke">
    <path d="M 39.97142 2.29224 L 2.70475 565.28505 L 2.70475 287.92026" />
    <path d="M -7.27655 536.90912 L -35.38645 535.31611" />
    <path d="M -7.27655 564.7194 L 2.70475 565.28505" />
    <path d="M 39.97142 2.29224 L 39.97142 -566.65232 A 100 2.31875 273.24353 0 0 39.51613 -574.13767 A 100 2.31875 273.24353 0 0 34.24198 -517.95164 L 33.85812 -512.2275 L 8.81805 -133.94362 L 8.05185 -122.06945 A 100 2.31875 273.24353 0 0 2.70475 -3.65952 L 2.70475 235.77563 A 75 1.73906 273.24353 0 0 0.29523 309.02146 A 75 1.73906 273.24353 0 0 2.70475 287.92026" />
    <path d="M -7.27655 235.20998 A 75 1.73906 273.24353 0 0 -9.68606 308.45581" />
    <path d="M -7.27655 308.59236 L -7.27655 564.7194" />
    <path d="M 29.53483 -574.70331 A 100 2.31875 273.24353 0 0 24.26068 -518.51728 L 34.24198 -517.95164" />
    <path d="M 24.26068 -518.51728 L 23.87683 -512.79315 L 33.85812 -512.2275" />
    <path d="M 23.87683 -512.79315 L -1.16325 -134.50927 L 8.81805 -133.94362" />
    <path d="M -1.16325 -134.50927 L -1.92945 -122.6351 L 8.05185 -122.06945" />
    <path d="M -1.92945 -122.6351 A 100 2.31875 273.24353 0 0 -7.27655 -4.22517 L 2.70475 -3.65952" />
    <path d="M -7.27655 -4.22517 L -7.27655 235.20998 L 2.70475 235.77563" />
    <path d="M -35.38645 291.97528 L -35.38645 535.31611" />
    <path d="M -2.10646 -546.44832 A 70 1.62313 273.24353 0 0 -5.79836 -507.1181 L -6.06706 -503.1112 L -31.10714 -124.82732 L -31.64348 -116.5154 A 70 1.62313 273.24353 0 0 -35.38645 -33.62845 L -35.38645 209.12123 A 60 1.39125 273.24353 0 0 -38.78125 291.7829 L -9.87913 293.4208" />
    <path d="M -7.27655 210.71424 L -35.38645 209.12123" />
    <path d="M -2.41113 -114.85878 L -31.64348 -116.5154" />
    <path d="M -1.89481 -123.17183 L -31.10714 -124.82732" />
    <path d="M 23.12643 -501.45678 L -6.06706 -503.1112" />
    <path d="M 23.39167 -505.46387 L -5.79836 -507.1181" />
    <path d="M -6.59237 -31.99667 L -35.38645 -33.62845" />
    <path d="M 0.29523 309.02146 L -9.68606 308.45581" />
    <path d="M -2.10646 -546.44832 L 26.18416 -544.84506" />
    <path d="M 39.51613 -574.13767 L 29.53483 -574.70331" />
</svg>